<svg width="9" height="16" viewBox="0 0 9 16" fill="none" xmlns="http://www.w3.org/2000/svg">
<path d="M5.9375 10.9844C5.9375 10.5729 5.83594 10.25 5.63281 10.0156C5.42969 9.78125 5.07292 9.5599 4.5625 9.35156C4.05208 9.14323 3.58073 8.93229 3.14844 8.71875C2.71615 8.50521 2.34375 8.25781 2.03125 7.97656C1.71875 7.69531 1.47917 7.36979 1.3125 7C1.14583 6.63021 1.0625 6.18229 1.0625 5.65625C1.0625 4.77604 1.35938 4.05208 1.95312 3.48438C2.54688 2.91146 3.33854 2.57812 4.32812 2.48438V0.835938H5.57031V2.51562C6.52344 2.65625 7.27083 3.04948 7.8125 3.69531C8.35938 4.33594 8.63281 5.15104 8.63281 6.14062H5.99219C5.99219 5.59896 5.88802 5.18229 5.67969 4.89062C5.47135 4.59896 5.17448 4.45312 4.78906 4.45312C4.44531 4.45312 4.17708 4.5625 3.98438 4.78125C3.79688 4.99479 3.70312 5.29167 3.70312 5.67188C3.70312 6.05729 3.8125 6.36458 4.03125 6.59375C4.25 6.81771 4.60156 7.03385 5.08594 7.24219C5.57031 7.44531 6.02604 7.65885 6.45312 7.88281C6.88542 8.10156 7.25781 8.35156 7.57031 8.63281C7.88281 8.91406 8.1276 9.24219 8.30469 9.61719C8.48177 9.99219 8.57031 10.4427 8.57031 10.9688C8.57031 11.8594 8.28646 12.5859 7.71875 13.1484C7.15625 13.7109 6.38802 14.0391 5.41406 14.1328V15.7031H4.17188V14.125C3.03646 14.0052 2.16406 13.6172 1.55469 12.9609C0.950521 12.2995 0.648438 11.4297 0.648438 10.3516H3.28125C3.28125 10.9453 3.41146 11.3984 3.67188 11.7109C3.9375 12.0182 4.3125 12.1719 4.79688 12.1719C5.15104 12.1719 5.42969 12.0677 5.63281 11.8594C5.83594 11.6458 5.9375 11.3542 5.9375 10.9844Z" fill="black"/>
</svg>
