<svg width="22" height="19" viewBox="0 0 22 19" fill="none" xmlns="http://www.w3.org/2000/svg">
<path d="M10.9999 0C9.72993 0 8.59993 0.8 8.17993 2H1.99993V4H3.94993L0.999932 11C0.529932 13 1.99993 14 4.49993 14C6.99993 14 8.55993 13 7.99993 11L5.04993 4H8.16993C8.49993 4.85 9.14993 5.5 9.99993 5.83V17H0.999932V19H20.9999V17H11.9999V5.82C12.8499 5.5 13.4999 4.85 13.8199 4H16.9499L13.9999 11C13.5299 13 14.9999 14 17.4999 14C19.9999 14 21.5599 13 20.9999 11L18.0499 4H19.9999V2H13.8299C13.3999 0.8 12.2699 0 10.9999 0ZM10.9999 2C11.2651 2 11.5195 2.10536 11.707 2.29289C11.8946 2.48043 11.9999 2.73478 11.9999 3C11.9999 3.26522 11.8946 3.51957 11.707 3.70711C11.5195 3.89464 11.2651 4 10.9999 4C10.7347 4 10.4804 3.89464 10.2928 3.70711C10.1053 3.51957 9.99993 3.26522 9.99993 3C9.99993 2.73478 10.1053 2.48043 10.2928 2.29289C10.4804 2.10536 10.7347 2 10.9999 2ZM4.49993 7.25L5.99993 11H2.99993L4.49993 7.25ZM17.4999 7.25L18.9999 11H15.9999L17.4999 7.25Z" fill="#4F4F4F"/>
</svg>
